<?xml version="1.0" encoding="iso-8859-1"?>
<!-- Generator: Adobe Illustrator 19.0.0, SVG Export Plug-In . SVG Version: 6.00 Build 0)  -->
<svg version="1.1" id="Capa_1" xmlns="http://www.w3.org/2000/svg" xmlns:xlink="http://www.w3.org/1999/xlink" x="0px" y="0px"
	 viewBox="0 0 512.001 512.001" style="enable-background:new 0 0 512.001 512.001;" xml:space="preserve">
<g>
	<path style="fill:#5089DD;" d="M168.813,304.045c-1.97,0-3.941-0.752-5.445-2.255l-40.345-40.345
		c-3.007-3.007-3.007-7.882,0-10.889l40.345-40.345c3.008-3.007,7.882-3.007,10.89,0c3.007,3.007,3.007,7.882,0,10.889L139.357,256
		l34.901,34.901c3.007,3.007,3.007,7.882,0,10.889C172.754,303.293,170.783,304.045,168.813,304.045z"/>
	<path style="fill:#5089DD;" d="M343.187,304.045c-1.97,0-3.941-0.752-5.445-2.255c-3.007-3.007-3.007-7.882,0-10.889L372.643,256
		l-34.901-34.901c-3.007-3.007-3.007-7.882,0-10.889c3.008-3.007,7.882-3.007,10.89,0l40.345,40.345
		c3.007,3.007,3.007,7.882,0,10.889l-40.345,40.345C347.128,303.293,345.157,304.045,343.187,304.045z"/>
	<path style="fill:#5089DD;" d="M203.029,304.046c-1.224,0-2.465-0.293-3.62-0.909c-3.752-2.004-5.168-6.669-3.164-10.419
		l40.234-75.329c2.003-3.752,6.668-5.166,10.419-3.165c3.752,2.004,5.168,6.669,3.164,10.419l-40.234,75.329
		C208.441,302.569,205.78,304.046,203.029,304.046z"/>
	<path style="fill:#5089DD;" d="M253.435,303.046c-4.253,0-7.7-3.447-7.7-7.7v-0.915c0-4.252,3.447-7.7,7.7-7.7s7.7,3.447,7.7,7.7
		v0.915C261.135,299.599,257.688,303.046,253.435,303.046z"/>
	<path style="fill:#5089DD;" d="M282.988,303.046c-4.253,0-7.7-3.447-7.7-7.7v-0.915c0-4.252,3.447-7.7,7.7-7.7
		c4.253,0,7.7,3.447,7.7,7.7v0.915C290.688,299.599,287.241,303.046,282.988,303.046z"/>
	<path style="fill:#5089DD;" d="M312.54,303.046c-4.253,0-7.7-3.447-7.7-7.7v-0.915c0-4.252,3.447-7.7,7.7-7.7
		c4.253,0,7.7,3.447,7.7,7.7v0.915C320.24,299.599,316.793,303.046,312.54,303.046z"/>
</g>
<path style="fill:#FF433E;" d="M52.191,67.101H14.033C6.283,67.101,0,60.819,0,53.069V14.911C0,7.16,6.283,0.878,14.033,0.878
	h38.158c7.75,0,14.033,6.283,14.033,14.033v38.158C66.223,60.819,59.941,67.101,52.191,67.101z"/>
<g>
	<path style="fill:#5089DD;" d="M111.079,38.945H95.698c-4.253,0-7.7-3.447-7.7-7.7s3.447-7.7,7.7-7.7h15.381
		c4.253,0,7.7,3.447,7.7,7.7S115.332,38.945,111.079,38.945z"/>
	<path style="fill:#5089DD;" d="M152.382,38.945h-15.381c-4.253,0-7.7-3.447-7.7-7.7s3.447-7.7,7.7-7.7h15.381
		c4.253,0,7.7,3.447,7.7,7.7S156.635,38.945,152.382,38.945z"/>
	<path style="fill:#5089DD;" d="M193.685,38.945h-15.381c-4.253,0-7.7-3.447-7.7-7.7s3.447-7.7,7.7-7.7h15.381
		c4.253,0,7.7,3.447,7.7,7.7S197.938,38.945,193.685,38.945z"/>
	<path style="fill:#5089DD;" d="M273.051,67.101h-38.158c-7.75,0-14.033-6.283-14.033-14.033V14.911
		c0-7.75,6.283-14.033,14.033-14.033h38.158c7.75,0,14.033,6.283,14.033,14.033v38.158
		C287.084,60.819,280.802,67.101,273.051,67.101z"/>
	<path style="fill:#5089DD;" d="M331.94,38.945h-15.381c-4.253,0-7.7-3.447-7.7-7.7s3.447-7.7,7.7-7.7h15.381
		c4.253,0,7.7,3.447,7.7,7.7S336.193,38.945,331.94,38.945z"/>
	<path style="fill:#5089DD;" d="M373.242,38.945h-15.381c-4.253,0-7.7-3.447-7.7-7.7s3.447-7.7,7.7-7.7h15.381
		c4.253,0,7.7,3.447,7.7,7.7S377.495,38.945,373.242,38.945z"/>
	<path style="fill:#5089DD;" d="M414.546,38.945h-15.381c-4.253,0-7.7-3.447-7.7-7.7s3.447-7.7,7.7-7.7h15.381
		c4.253,0,7.7,3.447,7.7,7.7S418.799,38.945,414.546,38.945z"/>
</g>
<path style="fill:#FF433E;" d="M445.777,53.069V14.911c0-7.75,6.283-14.033,14.033-14.033h38.158c7.75,0,14.033,6.283,14.033,14.033
	v38.158c0,7.75-6.283,14.033-14.033,14.033H459.81C452.059,67.101,445.777,60.819,445.777,53.069z"/>
<g>
	<path style="fill:#5089DD;" d="M481.632,119.657c-4.253,0-7.7-3.447-7.7-7.7V96.576c0-4.252,3.447-7.7,7.7-7.7
		c4.253,0,7.7,3.447,7.7,7.7v15.381C489.332,116.209,485.885,119.657,481.632,119.657z"/>
	<path style="fill:#5089DD;" d="M481.632,160.96c-4.253,0-7.7-3.447-7.7-7.7v-15.381c0-4.252,3.447-7.7,7.7-7.7
		c4.253,0,7.7,3.447,7.7,7.7v15.381C489.332,157.512,485.885,160.96,481.632,160.96z"/>
	<path style="fill:#5089DD;" d="M481.632,202.263c-4.253,0-7.7-3.447-7.7-7.7v-15.381c0-4.252,3.447-7.7,7.7-7.7
		c4.253,0,7.7,3.447,7.7,7.7v15.381C489.332,198.815,485.885,202.263,481.632,202.263z"/>
</g>
<path style="fill:#F96982;" d="M445.777,273.929v-38.158c0-7.75,6.283-14.033,14.033-14.033h38.158
	c7.75,0,14.033,6.283,14.033,14.033v38.158c0,7.75-6.283,14.033-14.033,14.033H459.81
	C452.059,287.962,445.777,281.679,445.777,273.929z"/>
<g>
	<path style="fill:#5089DD;" d="M481.632,340.518c-4.253,0-7.7-3.447-7.7-7.7v-15.381c0-4.252,3.447-7.7,7.7-7.7
		c4.253,0,7.7,3.447,7.7,7.7v15.381C489.332,337.07,485.885,340.518,481.632,340.518z"/>
	<path style="fill:#5089DD;" d="M481.632,381.821c-4.253,0-7.7-3.447-7.7-7.7V358.74c0-4.252,3.447-7.7,7.7-7.7
		c4.253,0,7.7,3.447,7.7,7.7v15.381C489.332,378.373,485.885,381.821,481.632,381.821z"/>
	<path style="fill:#5089DD;" d="M481.632,423.124c-4.253,0-7.7-3.447-7.7-7.7v-15.381c0-4.252,3.447-7.7,7.7-7.7
		c4.253,0,7.7,3.447,7.7,7.7v15.381C489.332,419.676,485.885,423.124,481.632,423.124z"/>
	<path style="fill:#5089DD;" d="M459.809,444.899h38.158c7.75,0,14.033,6.283,14.033,14.033v38.158
		c0,7.75-6.283,14.033-14.033,14.033h-38.158c-7.75,0-14.033-6.283-14.033-14.033v-38.158
		C445.777,451.181,452.059,444.899,459.809,444.899z"/>
	<path style="fill:#5089DD;" d="M416.302,488.455h-15.381c-4.253,0-7.7-3.447-7.7-7.7s3.447-7.7,7.7-7.7h15.381
		c4.253,0,7.7,3.447,7.7,7.7S420.555,488.455,416.302,488.455z"/>
	<path style="fill:#5089DD;" d="M374.999,488.455h-15.381c-4.253,0-7.7-3.447-7.7-7.7s3.447-7.7,7.7-7.7h15.381
		c4.253,0,7.7,3.447,7.7,7.7S379.252,488.455,374.999,488.455z"/>
	<path style="fill:#5089DD;" d="M333.695,488.455h-15.381c-4.253,0-7.7-3.447-7.7-7.7s3.447-7.7,7.7-7.7h15.381
		c4.253,0,7.7,3.447,7.7,7.7S337.948,488.455,333.695,488.455z"/>
</g>
<path style="fill:#F96982;" d="M238.949,444.899h38.158c7.75,0,14.033,6.283,14.033,14.033v38.158
	c0,7.75-6.283,14.033-14.033,14.033h-38.158c-7.75,0-14.033-6.283-14.033-14.033v-38.158
	C224.916,451.181,231.199,444.899,238.949,444.899z"/>
<g>
	<path style="fill:#5089DD;" d="M195.441,488.455H180.06c-4.253,0-7.7-3.447-7.7-7.7s3.447-7.7,7.7-7.7h15.381
		c4.253,0,7.7,3.447,7.7,7.7S199.694,488.455,195.441,488.455z"/>
	<path style="fill:#5089DD;" d="M154.138,488.455h-15.381c-4.253,0-7.7-3.447-7.7-7.7s3.447-7.7,7.7-7.7h15.381
		c4.253,0,7.7,3.447,7.7,7.7S158.391,488.455,154.138,488.455z"/>
	<path style="fill:#5089DD;" d="M112.835,488.455H97.454c-4.253,0-7.7-3.447-7.7-7.7s3.447-7.7,7.7-7.7h15.381
		c4.253,0,7.7,3.447,7.7,7.7S117.088,488.455,112.835,488.455z"/>
</g>
<path style="fill:#14C4BB;" d="M66.223,458.931v38.158c0,7.75-6.283,14.033-14.033,14.033H14.033C6.283,511.122,0,504.84,0,497.089
	v-38.158c0-7.75,6.283-14.033,14.033-14.033h38.158C59.941,444.899,66.223,451.181,66.223,458.931z"/>
<g>
	<path style="fill:#5089DD;" d="M30.368,423.124c-4.253,0-7.7-3.447-7.7-7.7v-15.381c0-4.252,3.447-7.7,7.7-7.7s7.7,3.447,7.7,7.7
		v15.381C38.068,419.676,34.621,423.124,30.368,423.124z"/>
	<path style="fill:#5089DD;" d="M30.368,381.821c-4.253,0-7.7-3.447-7.7-7.7V358.74c0-4.252,3.447-7.7,7.7-7.7s7.7,3.447,7.7,7.7
		v15.381C38.068,378.373,34.621,381.821,30.368,381.821z"/>
	<path style="fill:#5089DD;" d="M30.368,340.518c-4.253,0-7.7-3.447-7.7-7.7v-15.381c0-4.252,3.447-7.7,7.7-7.7s7.7,3.447,7.7,7.7
		v15.381C38.068,337.07,34.621,340.518,30.368,340.518z"/>
</g>
<path style="fill:#14C4BB;" d="M66.223,238.071v38.158c0,7.75-6.283,14.033-14.033,14.033H14.033C6.283,290.261,0,283.979,0,276.229
	v-38.158c0-7.75,6.283-14.033,14.033-14.033h38.158C59.941,224.038,66.223,230.321,66.223,238.071z"/>
<g>
	<path style="fill:#5089DD;" d="M30.368,202.263c-4.253,0-7.7-3.447-7.7-7.7v-15.381c0-4.252,3.447-7.7,7.7-7.7s7.7,3.447,7.7,7.7
		v15.381C38.068,198.815,34.621,202.263,30.368,202.263z"/>
	<path style="fill:#5089DD;" d="M30.368,160.96c-4.253,0-7.7-3.447-7.7-7.7v-15.381c0-4.252,3.447-7.7,7.7-7.7s7.7,3.447,7.7,7.7
		v15.381C38.068,157.512,34.621,160.96,30.368,160.96z"/>
	<path style="fill:#5089DD;" d="M30.368,119.657c-4.253,0-7.7-3.447-7.7-7.7V96.576c0-4.252,3.447-7.7,7.7-7.7s7.7,3.447,7.7,7.7
		v15.381C38.068,116.209,34.621,119.657,30.368,119.657z"/>
</g>
<g>
</g>
<g>
</g>
<g>
</g>
<g>
</g>
<g>
</g>
<g>
</g>
<g>
</g>
<g>
</g>
<g>
</g>
<g>
</g>
<g>
</g>
<g>
</g>
<g>
</g>
<g>
</g>
<g>
</g>
</svg>
