<svg height="512pt" viewBox="0 0 512 512" width="512pt" xmlns="http://www.w3.org/2000/svg"><path d="m512 256c0 141.386719-114.613281 256-256 256s-256-114.613281-256-256 114.613281-256 256-256 256 114.613281 256 256zm0 0" fill="#c9cf50"/><path d="m501.703125 101.328125v226.785156c-5.957031 20.367188-14.390625 39.675781-24.941406 57.585938-.03125.070312-.074219.132812-.117188.199219-19.484375 33.078124-46.503906 61.621093-78.398437 82.984374h-99.933594c-3.394531 7.335938-10.804688 12.421876-19.414062 12.421876h-45.796876c-8.609374 0-16.019531-5.085938-19.414062-12.421876h-99.925781c-31.972657-21.40625-59.046875-50.0625-78.542969-83.238281-10.542969-17.910156-18.964844-37.207031-24.921875-57.5625v-226.753906c0-9.289063 7.535156-16.8125 16.824219-16.8125h457.757812c3.71875 0 7.160156 1.214844 9.949219 3.25 4.167969 3.0625 6.875 7.992187 6.875 13.5625zm0 0" fill="#d04b33"/><path d="m476.761719 385.699219c10.550781-17.910157 18.984375-37.21875 24.941406-57.585938v-226.785156c0-5.570313-2.707031-10.5-6.875-13.5625-2.789063-2.035156-6.230469-3.25-9.949219-3.25h-15.371094v312.769531c2.476563-3.734375 4.863282-7.527344 7.136719-11.386718.042969-.066407.085938-.128907.117188-.199219zm0 0" fill="#b3402d"/><path d="m463.867188 65.832031c-1.746094-.4375-3.5-.867187-5.265626-1.273437-23.859374-5.507813-48.28125-7.867188-72.738281-8.234375-5.527343-.082031-11-.082031-16.394531.011719-61.355469 1.035156-112.28125 13.101562-112.28125 13.101562h-1.246094c-54.449218-17.113281-119.597656-14.46875-164.9375-9.171875-17.585937 2.058594-32.203125 4.503906-42.046875 6.363281-7.949219 1.492188-13.738281 8.589844-13.738281 16.894532v302.121093c5.988281 10.1875 12.675781 19.925781 19.976562 29.152344 3.949219 4.984375 8.078126 9.824219 12.40625 14.503906 49.015626-6.457031 125.3125-11.160156 188.339844 8.664063h1.347656s97.167969-23.03125 188.8125-10.511719c4.203126-4.640625 8.226563-9.445313 12.070313-14.390625.730469-.929688 1.453125-1.867188 2.164063-2.820312 5.890624-7.785157 11.335937-15.902344 16.308593-24.34375v-303.378907c0-7.917969-5.285156-14.792969-12.777343-16.6875zm0 0" fill="#ffead7"/><path d="m458.171875 413.0625c-3.84375 4.945312-7.867187 9.75-12.070313 14.390625-5.472656 6.082031-11.25 11.898437-17.300781 17.429687-80.195312-7.234374-160.289062 9.652344-171.519531 12.148438-.890625.191406-1.796875.160156-2.664062-.113281-55.675782-17.15625-121.398438-15.410157-169.515626-10.324219-6.113281-5.472656-11.964843-11.253906-17.5-17.292969-4.328124-4.679687-8.457031-9.519531-12.40625-14.503906 47.429688-7.136719 131.019532-14.585937 199.421876 6.492187.867187.269532 1.773437.300782 2.664062.113282 12.609375-2.800782 111.992188-23.730469 200.890625-8.339844zm0 0" fill="#e0bfad"/><g fill="#d4b6a3"><path d="m72.308594 384.121094c-1.921875 0-3.730469-1.191406-4.421875-3.105469-.882813-2.441406.382812-5.136719 2.824219-6.019531 44.917968-16.246094 86.660156-15.382813 113.769531-11.800782 29.421875 3.890626 48.046875 11.558594 48.824219 11.882813 2.398437 1 3.53125 3.75 2.53125 6.148437-.996094 2.394532-3.75 3.53125-6.148438 2.53125-.90625-.375-73.488281-29.679687-155.777344.082032-.527344.191406-1.070312.28125-1.601562.28125zm0 0"/><path d="m72.308594 354.664062c-1.921875 0-3.730469-1.1875-4.421875-3.101562-.882813-2.441406.382812-5.140625 2.824219-6.023438 44.917968-16.242187 86.660156-15.382812 113.769531-11.796874 29.421875 3.890624 48.046875 11.554687 48.824219 11.878906 2.398437 1 3.53125 3.753906 2.53125 6.148437-.996094 2.398438-3.75 3.535157-6.148438 2.53125-.90625-.371093-73.488281-29.675781-155.777344.082031-.527344.191407-1.070312.28125-1.601562.28125zm0 0"/><path d="m72.308594 325.210938c-1.921875 0-3.730469-1.191407-4.421875-3.105469-.882813-2.441407.382812-5.136719 2.824219-6.019531 44.917968-16.246094 86.660156-15.386719 113.769531-11.800782 29.421875 3.890625 48.046875 11.558594 48.824219 11.882813 2.398437.996093 3.53125 3.75 2.53125 6.148437-.996094 2.394532-3.746094 3.527344-6.144532 2.53125-.722656-.300781-73.386718-29.71875-155.78125.082032-.527344.1875-1.070312.28125-1.601562.28125zm0 0"/><path d="m72.308594 295.753906c-1.921875 0-3.730469-1.191406-4.421875-3.105468-.882813-2.441407.382812-5.136719 2.824219-6.019532 44.917968-16.246094 86.660156-15.382812 113.769531-11.796875 29.421875 3.886719 48.046875 11.554688 48.824219 11.878907 2.398437 1 3.53125 3.75 2.53125 6.148437-.996094 2.394531-3.75 3.535156-6.148438 2.53125-.90625-.375-73.488281-29.679687-155.777344.082031-.527344.191406-1.070312.28125-1.601562.28125zm0 0"/><path d="m72.308594 266.296875c-1.921875 0-3.730469-1.1875-4.421875-3.101563-.882813-2.441406.382812-5.140624 2.824219-6.023437 44.917968-16.242187 86.660156-15.382813 113.769531-11.796875 29.421875 3.890625 48.046875 11.554688 48.824219 11.878906 2.398437 1 3.53125 3.753906 2.53125 6.148438-.996094 2.398437-3.746094 3.53125-6.144532 2.535156-.722656-.300781-73.386718-29.71875-155.78125.078125-.527344.191406-1.070312.28125-1.601562.28125zm0 0"/><path d="m72.308594 236.84375c-1.921875 0-3.730469-1.191406-4.421875-3.105469-.882813-2.441406.382812-5.136719 2.824219-6.019531 44.917968-16.246094 86.660156-15.382812 113.769531-11.800781 29.421875 3.890625 48.046875 11.558593 48.824219 11.882812 2.398437.996094 3.53125 3.75 2.53125 6.148438-.996094 2.394531-3.75 3.53125-6.148438 2.53125-.90625-.375-73.488281-29.679688-155.777344.082031-.527344.1875-1.070312.28125-1.601562.28125zm0 0"/><path d="m72.308594 207.386719c-1.921875 0-3.730469-1.1875-4.421875-3.101563-.882813-2.441406.382812-5.140625 2.824219-6.023437 44.917968-16.242188 86.660156-15.382813 113.769531-11.796875 29.421875 3.890625 48.046875 11.554687 48.824219 11.878906 2.398437 1 3.53125 3.753906 2.53125 6.148438-.996094 2.398437-3.746094 3.53125-6.144532 2.535156-.722656-.300782-73.386718-29.71875-155.78125.078125-.527344.191406-1.070312.28125-1.601562.28125zm0 0"/><path d="m72.308594 207.386719c-1.921875 0-3.730469-1.1875-4.421875-3.101563-.882813-2.441406.382812-5.140625 2.824219-6.023437 44.917968-16.242188 86.660156-15.382813 113.769531-11.796875 29.421875 3.890625 48.046875 11.554687 48.824219 11.878906 2.398437 1 3.53125 3.753906 2.53125 6.148438-.996094 2.398437-3.746094 3.53125-6.144532 2.535156-.722656-.300782-73.386718-29.71875-155.78125.078125-.527344.191406-1.070312.28125-1.601562.28125zm0 0"/><path d="m286.574219 266.074219c-1.925781 0-3.730469-1.1875-4.421875-3.101563-.882813-2.441406.378906-5.140625 2.820312-6.023437 44.917969-16.246094 86.660156-15.378907 113.769532-11.796875 29.421874 3.890625 48.046874 11.554687 48.828124 11.878906 2.394532 1 3.527344 3.753906 2.53125 6.148438-1 2.398437-3.75 3.527343-6.148437 2.535156-.722656-.300782-73.386719-29.714844-155.78125.078125-.527344.191406-1.070313.28125-1.597656.28125zm0 0"/><path d="m286.574219 384.121094c-1.925781 0-3.730469-1.191406-4.421875-3.105469-.882813-2.441406.378906-5.136719 2.820312-6.019531 44.917969-16.246094 86.660156-15.382813 113.769532-11.800782 29.421874 3.890626 48.046874 11.558594 48.828124 11.882813 2.394532 1 3.527344 3.75 2.53125 6.148437-1 2.394532-3.75 3.527344-6.148437 2.53125-.722656-.300781-73.386719-29.714843-155.78125.082032-.527344.191406-1.070313.28125-1.597656.28125zm0 0"/><path d="m286.570312 236.621094c-1.921874 0-3.726562-1.191406-4.421874-3.105469-.882813-2.441406.382812-5.136719 2.824218-6.019531 44.914063-16.246094 86.660156-15.386719 113.769532-11.800782 29.421874 3.890626 48.046874 11.558594 48.824218 11.882813 2.398438.996094 3.53125 3.75 2.53125 6.148437-.996094 2.394532-3.75 3.53125-6.148437 2.53125-.90625-.375-73.488281-29.683593-155.777344.082032-.527344.191406-1.070313.28125-1.601563.28125zm0 0"/><path d="m286.574219 207.164062c-1.925781 0-3.730469-1.191406-4.421875-3.105468-.882813-2.441406.378906-5.136719 2.820312-6.019532 44.917969-16.246093 86.660156-15.382812 113.769532-11.796874 29.421874 3.886718 48.046874 11.554687 48.828124 11.878906 2.394532 1 3.527344 3.75 2.53125 6.148437-1 2.394531-3.75 3.527344-6.148437 2.535157-.722656-.300782-73.386719-29.71875-155.78125.078124-.527344.191407-1.070313.28125-1.597656.28125zm0 0"/><path d="m286.570312 177.707031c-1.921874 0-3.726562-1.1875-4.421874-3.101562-.882813-2.441407.382812-5.140625 2.824218-6.023438 44.914063-16.242187 86.660156-15.382812 113.769532-11.796875 29.421874 3.890625 48.046874 11.554688 48.824218 11.878906 2.398438 1 3.53125 3.753907 2.53125 6.152344-.996094 2.394532-3.75 3.53125-6.148437 2.527344-.90625-.371094-73.488281-29.679688-155.777344.082031-.527344.191407-1.070313.28125-1.601563.28125zm0 0"/><path d="m286.574219 148.253906c-1.925781 0-3.730469-1.191406-4.421875-3.105468-.882813-2.441407.378906-5.136719 2.820312-6.019532 44.917969-16.246094 86.660156-15.382812 113.769532-11.800781 29.421874 3.890625 48.046874 11.558594 48.828124 11.882813 2.394532.996093 3.527344 3.75 2.53125 6.148437-1 2.394531-3.75 3.527344-6.148437 2.53125-.722656-.300781-73.386719-29.714844-155.78125.082031-.527344.191406-1.070313.28125-1.597656.28125zm0 0"/><path d="m286.570312 118.796875c-1.921874 0-3.726562-1.1875-4.421874-3.105469-.882813-2.441406.382812-5.136718 2.824218-6.019531 44.914063-16.246094 86.660156-15.382813 113.769532-11.796875 29.421874 3.886719 48.046874 11.554688 48.824218 11.878906 2.398438 1 3.53125 3.753906 2.53125 6.148438-.996094 2.398437-3.75 3.53125-6.148437 2.53125-.90625-.371094-73.488281-29.679688-155.777344.082031-.527344.191406-1.070313.28125-1.601563.28125zm0 0"/><path d="m231.496094 118.941406c-.5 0-1.003906-.082031-1.503906-.25-26.210938-8.855468-53.417969-13.347656-80.90625-13.292968-.003907 0-.003907 0-.007813 0-2.59375 0-4.699219-2.101563-4.703125-4.695313 0-2.59375 2.101562-4.703125 4.699219-4.707031h.328125c28.394531 0 56.519531 4.636718 83.597656 13.785156 2.460938.832031 3.78125 3.5 2.949219 5.960938-.660157 1.960937-2.492188 3.199218-4.453125 3.199218zm0 0"/><path d="m231.304688 146.058594c-.5 0-1.003907-.082032-1.503907-.25-26.210937-8.855469-53.417969-13.324219-80.90625-13.292969 0 0-.003906 0-.007812 0-2.59375 0-4.695313-2.101563-4.699219-4.695313-.003906-2.597656 2.097656-4.707031 4.695312-4.707031h.332032c28.394531 0 56.515625 4.636719 83.59375 13.785157 2.460937.832031 3.78125 3.5 2.949218 5.960937-.660156 1.960937-2.492187 3.199219-4.453124 3.199219zm0 0"/><path d="m231.304688 177.929688c-.5 0-1.003907-.078126-1.503907-.246094-26.109375-8.820313-53.226562-13.292969-80.597656-13.292969-.105469 0-.21875.015625-.316406 0-2.59375 0-4.695313-2.101563-4.699219-4.695313-.003906-2.597656 2.097656-4.707031 4.695312-4.707031 28.515626-.066406 56.742188 4.601563 83.929688 13.785157 2.457031.832031 3.777344 3.5 2.949219 5.960937-.664063 1.960937-2.496094 3.195313-4.457031 3.195313zm0 0"/></g><path d="m66.097656 116.101562v53.214844c0 1.878906 1.851563 3.191406 3.625 2.574219 8.890625-3.097656 33.394532-10.597656 65.53125-11.972656 1.464844-.0625 2.625-1.253907 2.625-2.722657v-53.523437c0-1.546875-1.285156-2.792969-2.832031-2.726563-35.632813 1.523438-60.574219 10.097657-67.199219 12.609376-1.054687.398437-1.75 1.414062-1.75 2.546874zm0 0" fill="#77a9f2"/><path d="m286.570312 292.289062v53.214844c0 1.878906 1.851563 3.191406 3.628907 2.574219 8.886719-3.09375 33.390625-10.597656 65.527343-11.972656 1.464844-.0625 2.628907-1.253907 2.628907-2.722657v-53.523437c0-1.546875-1.289063-2.792969-2.835938-2.726563-35.628906 1.523438-60.574219 10.097657-67.195312 12.609376-1.058594.398437-1.753907 1.414062-1.753907 2.546874zm0 0" fill="#77a9f2"/><path d="m441.753906 292.289062v53.214844c0 1.878906-1.851562 3.191406-3.625 2.574219-8.886718-3.09375-33.394531-10.597656-65.53125-11.972656-1.464844-.0625-2.625-1.253907-2.625-2.722657v-53.523437c0-1.546875 1.289063-2.792969 2.835938-2.726563 35.628906 1.523438 60.574218 10.097657 67.195312 12.609376 1.054688.398437 1.75 1.414062 1.75 2.546874zm0 0" fill="#d04b33"/><path d="m256 390.769531c-2.597656 0-4.703125-2.105469-4.703125-4.703125v-293.605468c0-2.59375 2.105469-4.699219 4.703125-4.699219s4.703125 2.105469 4.703125 4.699219v293.605468c0 2.597656-2.105469 4.703125-4.703125 4.703125zm0 0" fill="#d4b6a3"/></svg>